<svg xmlns="http://www.w3.org/2000/svg" xmlns:xlink="http://www.w3.org/1999/xlink" width="1080" zoomAndPan="magnify" viewBox="0 0 810 809.999993" height="1080" preserveAspectRatio="xMidYMid meet" version="1.0"><defs><clipPath id="674c9cdd5b"><path d="M 115.132812 658 L 175 658 L 175 687 L 115.132812 687 Z M 115.132812 658 " clip-rule="nonzero"/></clipPath><clipPath id="1c115679ff"><path d="M 635 658 L 694.882812 658 L 694.882812 687 L 635 687 Z M 635 658 " clip-rule="nonzero"/></clipPath></defs><path fill="#fffae9" d="M 677.257812 609.628906 C 676.949219 618.113281 676.121094 626.394531 674.878906 634.253906 C 668.359375 676.164062 649.425781 709.6875 619.832031 735.246094 C 572.855469 775.804688 498.976562 795.984375 404.917969 796.707031 C 311.175781 795.984375 237.398438 775.910156 190.421875 735.554688 C 160.828125 710.203125 141.894531 676.988281 135.269531 635.496094 C 133.820312 627.21875 132.996094 618.632812 132.683594 609.628906 C 127.511719 478.53125 254.574219 339.773438 404.917969 339.773438 C 555.367188 339.773438 682.328125 478.53125 677.257812 609.628906 Z M 677.257812 609.628906 " fill-opacity="1" fill-rule="nonzero"/><path fill="#fffae9" d="M 171.34375 11.726562 C 128.644531 26.777344 118.464844 170.042969 156.496094 269.054688 C 192.078125 361.683594 245.742188 412.976562 245.742188 412.976562 C 245.742188 412.976562 270.058594 436.359375 299.09375 427.4375 C 331.25 417.554688 335.121094 385.511719 335.121094 385.511719 C 335.121094 385.511719 350.714844 312.933594 328.136719 216.304688 C 304.003906 113.023438 215.125 0.203125 171.34375 11.726562 Z M 171.34375 11.726562 " fill-opacity="1" fill-rule="nonzero"/><path fill="#ffe9d2" d="M 200.847656 107.738281 C 180.816406 115.253906 186.125 205.945312 209.273438 263.910156 C 229.027344 313.367188 252.988281 339.855469 252.988281 339.855469 C 252.988281 339.855469 263.425781 351.453125 274.679688 347.996094 C 287.144531 344.164062 288.058594 329.078125 288.058594 329.078125 C 288.058594 329.078125 293.007812 293.703125 281.578125 241.691406 C 268.183594 180.730469 221.640625 102.710938 200.847656 107.738281 Z M 200.847656 107.738281 " fill-opacity="1" fill-rule="nonzero"/><path fill="#fffae9" d="M 638.566406 11.726562 C 681.261719 26.777344 691.445312 170.042969 653.414062 269.054688 C 617.832031 361.683594 564.167969 412.976562 564.167969 412.976562 C 564.167969 412.976562 539.851562 436.359375 510.816406 427.4375 C 478.65625 417.554688 474.789062 385.511719 474.789062 385.511719 C 474.789062 385.511719 459.191406 312.933594 481.769531 216.304688 C 505.90625 113.023438 594.785156 0.203125 638.566406 11.726562 Z M 638.566406 11.726562 " fill-opacity="1" fill-rule="nonzero"/><path fill="#ffe9d2" d="M 609.058594 107.738281 C 629.089844 115.253906 623.785156 205.945312 600.632812 263.910156 C 580.882812 313.367188 556.921875 339.855469 556.921875 339.855469 C 556.921875 339.855469 546.484375 351.453125 535.226562 347.996094 C 522.761719 344.164062 521.847656 329.078125 521.847656 329.078125 C 521.847656 329.078125 516.898438 293.703125 528.328125 241.691406 C 541.726562 180.730469 588.265625 102.710938 609.058594 107.738281 Z M 609.058594 107.738281 " fill-opacity="1" fill-rule="nonzero"/><path fill="#816c74" d="M 260.449219 593.113281 C 257.015625 593.113281 254.113281 590.453125 253.863281 586.972656 C 253.269531 578.660156 254.621094 571.859375 257.996094 566.179688 C 262.464844 558.671875 270.707031 553.796875 279.007812 553.753906 C 279.042969 553.753906 279.085938 553.753906 279.121094 553.753906 C 286.742188 553.753906 294.46875 557.832031 299.824219 564.679688 C 305.085938 571.394531 306.703125 581.328125 306.867188 582.441406 C 307.417969 586.042969 304.941406 589.402344 301.332031 589.960938 C 297.757812 590.484375 294.355469 588.035156 293.796875 584.429688 C 293.46875 582.351562 292.054688 576.210938 289.402344 572.828125 C 286.535156 569.164062 282.703125 566.980469 279.128906 566.980469 C 279.113281 566.980469 279.09375 566.980469 279.078125 566.980469 C 274.804688 567.003906 271.121094 569.992188 269.363281 572.941406 C 267.417969 576.21875 266.660156 580.503906 267.054688 586.03125 C 267.3125 589.675781 264.574219 592.839844 260.933594 593.097656 C 260.769531 593.109375 260.613281 593.113281 260.449219 593.113281 Z M 260.449219 593.113281 " fill-opacity="1" fill-rule="nonzero"/><path fill="#816c74" d="M 549.460938 593.113281 C 549.296875 593.113281 549.132812 593.109375 548.96875 593.097656 C 545.324219 592.832031 542.589844 589.660156 542.855469 586.019531 C 543.257812 580.511719 542.5 576.230469 540.546875 572.933594 C 538.800781 569.988281 535.113281 567.003906 530.832031 566.980469 C 530.816406 566.980469 530.796875 566.980469 530.78125 566.980469 C 527.214844 566.980469 523.375 569.164062 520.5 572.835938 C 517.835938 576.234375 516.40625 582.492188 516.113281 584.414062 C 515.574219 588.023438 512.207031 590.542969 508.589844 589.96875 C 504.980469 589.421875 502.492188 586.054688 503.042969 582.441406 C 503.207031 581.328125 504.824219 571.394531 510.085938 564.675781 C 515.476562 557.796875 523.390625 553.980469 530.902344 553.753906 C 539.210938 553.796875 547.460938 558.675781 551.914062 566.179688 C 555.253906 571.800781 556.640625 578.796875 556.046875 586.984375 C 555.796875 590.460938 552.894531 593.113281 549.460938 593.113281 Z M 549.460938 593.113281 " fill-opacity="1" fill-rule="nonzero"/><path fill="#ffe9d2" d="M 193.007812 735.140625 C 192.179688 735.347656 191.25 735.453125 190.421875 735.554688 C 160.828125 710.203125 141.894531 676.988281 135.269531 635.496094 C 145.722656 628.875 158.242188 623.910156 172.105469 621.425781 C 214.839844 613.871094 254.265625 633.222656 259.957031 664.574219 C 265.75 696.03125 235.742188 727.589844 193.007812 735.140625 Z M 193.007812 735.140625 " fill-opacity="1" fill-rule="nonzero"/><path fill="#ffe9d2" d="M 674.878906 634.253906 C 668.359375 676.164062 649.425781 709.6875 619.832031 735.246094 C 619.625 735.246094 619.316406 735.140625 619.109375 735.140625 C 576.375 727.589844 546.367188 696.03125 552.160156 664.574219 C 557.953125 633.222656 597.277344 613.871094 640.113281 621.425781 C 653.152344 623.703125 664.945312 628.253906 674.878906 634.253906 Z M 674.878906 634.253906 " fill-opacity="1" fill-rule="nonzero"/><g clip-path="url(#674c9cdd5b)"><path fill="#816c74" d="M 119.347656 686.195312 C 118.257812 686.167969 117.1875 685.683594 116.441406 684.773438 C 115.089844 683.113281 115.332031 680.667969 116.992188 679.316406 C 138.332031 661.867188 168.746094 658.945312 170.035156 658.828125 C 172.273438 658.648438 174.054688 660.214844 174.242188 662.34375 C 174.441406 664.476562 172.867188 666.363281 170.730469 666.558594 C 170.4375 666.585938 141.367188 669.40625 121.898438 685.320312 C 121.152344 685.933594 120.246094 686.21875 119.347656 686.195312 Z M 119.347656 686.195312 " fill-opacity="1" fill-rule="nonzero"/></g><path fill="#816c74" d="M 127.859375 706.398438 C 126.859375 706.371094 125.871094 705.964844 125.132812 705.175781 C 123.664062 703.617188 123.738281 701.164062 125.296875 699.691406 C 146.269531 679.945312 174.453125 674.203125 175.640625 673.964844 C 177.753906 673.566406 179.769531 674.925781 180.203125 677.019531 C 180.617188 679.121094 179.25 681.160156 177.148438 681.578125 C 176.875 681.632812 149.921875 687.160156 130.617188 705.34375 C 129.839844 706.070312 128.851562 706.421875 127.859375 706.398438 Z M 127.859375 706.398438 " fill-opacity="1" fill-rule="nonzero"/><g clip-path="url(#1c115679ff)"><path fill="#816c74" d="M 690.589844 686.195312 C 691.679688 686.167969 692.75 685.683594 693.496094 684.773438 C 694.847656 683.113281 694.605469 680.667969 692.945312 679.316406 C 671.605469 661.867188 641.191406 658.945312 639.902344 658.828125 C 637.664062 658.648438 635.886719 660.214844 635.695312 662.34375 C 635.496094 664.476562 637.070312 666.363281 639.207031 666.558594 C 639.5 666.585938 668.570312 669.40625 688.039062 685.320312 C 688.785156 685.933594 689.691406 686.21875 690.589844 686.195312 Z M 690.589844 686.195312 " fill-opacity="1" fill-rule="nonzero"/></g><path fill="#816c74" d="M 682.078125 706.398438 C 683.078125 706.371094 684.066406 705.964844 684.804688 705.175781 C 686.273438 703.617188 686.203125 701.164062 684.636719 699.691406 C 663.667969 679.945312 635.484375 674.203125 634.296875 673.964844 C 632.183594 673.566406 630.167969 674.925781 629.734375 677.019531 C 629.320312 679.121094 630.6875 681.160156 632.789062 681.578125 C 633.0625 681.632812 660.015625 687.160156 679.320312 705.34375 C 680.097656 706.070312 681.085938 706.421875 682.078125 706.398438 Z M 682.078125 706.398438 " fill-opacity="1" fill-rule="nonzero"/><path fill="#d36c40" d="M 448.070312 609.339844 C 445.757812 608.949219 443.492188 610.617188 443.109375 613 C 443.039062 613.5 441.148438 625.351562 427.871094 626.941406 C 416.984375 628.296875 412.261719 619.984375 411.09375 617.480469 L 411.066406 607.058594 C 411.066406 605.894531 410.613281 604.800781 409.792969 603.976562 C 408.964844 603.160156 407.875 602.710938 406.710938 602.710938 L 406.703125 602.710938 C 405.316406 602.710938 404.003906 603.382812 403.1875 604.503906 L 403.175781 604.511719 C 402.628906 605.269531 402.347656 606.15625 402.347656 607.074219 L 402.375 617.570312 C 401.195312 620.167969 396.609375 628.257812 385.675781 627.03125 C 372.808594 625.542969 370.566406 614.402344 370.355469 613.148438 C 369.992188 610.777344 367.6875 609.121094 365.382812 609.515625 C 364.230469 609.699219 363.191406 610.339844 362.523438 611.277344 C 361.847656 612.203125 361.574219 613.335938 361.734375 614.460938 C 362.714844 621 368.777344 633.859375 384.664062 635.695312 C 385.765625 635.824219 386.835938 635.882812 387.867188 635.882812 C 396.742188 635.882812 402.941406 631.4375 406.773438 626.753906 C 410.621094 631.402344 416.808594 635.804688 425.609375 635.804688 C 426.667969 635.804688 427.769531 635.738281 428.902344 635.601562 C 444.777344 633.695312 450.789062 620.816406 451.75 614.257812 C 452.074219 611.90625 450.425781 609.691406 448.070312 609.339844 Z M 448.070312 609.339844 " fill-opacity="1" fill-rule="nonzero"/><path fill="#d36c40" d="M 386.496094 585.527344 C 390.898438 577.707031 422.804688 578.777344 426.949219 585.4375 C 431.425781 592.640625 418.492188 609.414062 406.773438 609.625 C 395.050781 609.832031 382.253906 593.0625 386.496094 585.527344 Z M 386.496094 585.527344 " fill-opacity="1" fill-rule="nonzero"/></svg>